<?xml version="1.0" encoding="UTF-8"?><svg id="Layer_1" xmlns="http://www.w3.org/2000/svg" viewBox="0 0 219.89 224.29"><defs><style>.cls-1{opacity:.75;}.cls-2{fill:#dd7e28;}</style></defs><g class="cls-1"><path d="M206.82,125.64c-2.32-4.14-5.53-7.47-9.26-9.89-.17-3.69-1.07-7.4-2.73-10.91-.47-1.21-1.03-2.41-1.69-3.58l-41.85-74.6c-8.71-15.53-28.48-21.1-44.07-12.42L30.74,56.84c-9.69,5.39-16.68,14.22-19.7,24.86-3.02,10.64-1.7,21.81,3.71,31.46l42.68,76.09c.55,1.25,1.16,2.49,1.84,3.69,7.6,13.55,21.76,21.19,36.33,21.19,6.85,0,13.8-1.69,20.19-5.25.51-.28,1-.58,1.48-.89l78.59-43.77c13.72-7.64,18.63-24.92,10.96-38.59Z"/></g><path class="cls-2" d="M187.18,136.65c-1.61-2.87-5.24-3.89-8.12-2.29l-79.93,44.51s-.02.02-.04.02c-1.65.91-3.56,1.12-5.37.61-1.83-.52-3.35-1.71-4.28-3.37s-1.15-3.57-.63-5.39c.51-1.82,1.72-3.33,3.38-4.25l79.92-44.51c2.88-1.61,3.91-5.23,2.3-8.1-.16-.27-.32-.52-.52-.76-.1-.29-.24-.59-.39-.87l-41.84-74.6c-1.29-2.31-3.4-3.96-5.94-4.68-2.54-.71-5.21-.4-7.52.89l-31.15,17.35,28.41,50.65c1.06,1.9,1,4.22-.15,6.06-1.16,1.84-3.24,2.9-5.41,2.77l-15.57-.93-7.36,13.7c-1.03,1.92-3.03,3.12-5.21,3.14-.02,0-.04,0-.05,0-2.16,0-4.15-1.16-5.21-3.04l-28.41-50.65-6.39,3.56c-9.16,5.1-12.46,16.69-7.33,25.83l44.68,79.64c.06.12.14.24.22.36,2.48,4.24,6.46,7.31,11.22,8.65,1.72.48,3.47.72,5.21.72,3.18,0,6.32-.8,9.19-2.38.03-.01.05-.02.08-.04l79.93-44.51c2.88-1.6,3.91-5.22,2.3-8.09Z"/></svg>